<?xml version="1.0" standalone="no"?>
<svg version="1.0" xmlns="http://www.w3.org/2000/svg"
 width="130pt" height="130pt" viewBox="0 0 130 130"
 preserveAspectRatio="xMidYMid meet">
<g transform="translate(0, 130) scale(0.1, -0.1)"
fill="#222" stroke="none">
<path d="M340 1120 l0 -40 170 0 170 0 0 -162 c0 -90 -5 -203 -11 -252 -9 -76
-9 -94 6 -133 15 -38 19 -42 33 -31 8 7 24 33 36 58 19 41 21 69 24 323 l4
277 -216 0 -216 0 0 -40z"/>
<path d="M345 860 c-11 -35 3 -60 35 -60 38 0 41 -6 195 -375 l122 -290 59 -3
59 -3 109 263 c150 360 168 395 208 406 29 7 33 13 36 45 l3 37 -141 0 -141 0
3 -37 c3 -37 4 -38 46 -41 23 -2 42 -8 42 -13 0 -11 -151 -387 -195 -484 l-27
-60 -17 35 c-10 19 -69 162 -131 318 l-114 282 -72 0 c-64 0 -73 -2 -79 -20z"/>
<path d="M173 703 c-38 -15 15 -174 80 -241 42 -43 122 -72 200 -72 79 0 95 9
79 44 -14 32 -39 43 -117 51 -51 6 -65 12 -96 44 -26 26 -42 55 -54 96 -10 33
-22 66 -27 73 -10 12 -42 15 -65 5z"/>
</g>
</svg>
