<?xml version="1.0" standalone="no"?>
<svg version="1.0" xmlns="http://www.w3.org/2000/svg"
 width="100px" height="100px" viewBox="0 0 140 140">
<g transform="translate(0, 140) scale(0.1, -0.1)"
fill="#181818" stroke="none">
<path d="M0 700 l0 -700 700 0 700 0 0 700 0 700 -700 0 -700 0 0 -700z m790
178 c0 -199 -7 -250 -39 -289 l-19 -24 -16 40 c-13 30 -14 46 -6 68 5 17 10
99 10 183 l0 154 -125 0 -125 0 0 30 0 30 160 0 160 0 0 -192z m-110 -258 c52
-131 98 -236 101 -232 6 5 131 308 166 400 4 8 -6 12 -31 12 -33 0 -36 2 -36
30 l0 30 105 0 105 0 0 -29 c0 -26 -4 -30 -31 -33 -31 -3 -32 -6 -134 -253
l-102 -250 -43 0 -43 0 -105 253 c-102 247 -105 252 -133 252 -26 0 -29 4 -29
30 0 30 0 30 58 30 l58 0 94 -240z m-275 64 c4 -32 17 -57 39 -82 30 -32 40
-36 93 -40 53 -4 62 -8 72 -29 6 -13 9 -29 6 -34 -8 -12 -91 -11 -140 2 -75
21 -145 119 -145 203 0 23 4 26 34 26 32 0 34 -2 41 -46z"/>
</g>
</svg>
